<svg width="59" height="59" viewBox="0 0 59 59" fill="none" xmlns="http://www.w3.org/2000/svg">
<path fill-rule="evenodd" clip-rule="evenodd" d="M29.5394 58.9984C37.3614 58.9892 44.8569 55.8721 50.3837 50.3367C55.9071 44.7981 59.0086 37.2929 59 29.4716C58.9938 21.6529 55.8798 14.1545 50.3475 8.62471C44.8118 3.09841 37.3096 -0.00314847 29.4882 2.39837e-06C21.6662 0.00308001 14.1675 3.11393 8.63754 8.64362C3.10495 14.1761 0 21.678 0 29.5C0.0153853 37.3249 3.13252 44.8266 8.67142 50.3564C14.2071 55.8888 21.7156 58.9968 29.5402 59L29.5394 58.9984ZM12.3045 18.3451L18.3849 12.5388L29.5392 23.6779L40.6936 12.5388L46.737 18.3451L35.3613 29.4992L46.7347 40.6533L40.6912 46.6966L29.54 35.5425L18.3856 46.6934L12.3053 40.6501L23.4966 29.4992L12.3045 18.3451Z" fill="#E60716"/>
</svg>
